<svg version="1.1" id="Layer_1" xmlns="http://www.w3.org/2000/svg" xmlns:xlink="http://www.w3.org/1999/xlink" x="0px" y="0px"
	 width="120" height="50" viewBox="0 0 880 336" enable-background="new 0 0 734 336" xml:space="preserve">
<path fill="#FF8138" opacity="1.000000" stroke="none" 
	d="
M504.000000,337.000000 
	C336.039093,337.000000 168.578217,337.000000 1.058660,337.000000 
	C1.058660,225.065277 1.058660,113.130524 1.058660,1.097883 
	C245.544250,1.097883 490.088562,1.097883 734.816406,1.097883 
	C734.816406,112.999756 734.816406,224.999847 734.816406,337.000000 
	C658.130432,337.000000 581.315247,337.000000 504.000000,337.000000 
M347.500000,3.000002 
	C232.755600,3.000002 118.011200,3.000002 3.400276,3.000002 
	C3.400276,114.077744 3.400276,224.456284 3.400276,334.738892 
	C247.052246,334.738892 490.303864,334.738892 733.687988,334.738892 
	C733.687988,224.099258 733.687988,113.720970 733.687988,3.000002 
	C605.084167,3.000002 476.792084,3.000002 347.500000,3.000002 
z"/>
<path fill="#161616" opacity="1.000000" stroke="none" 
	d="
M348.000000,3.000002 
	C476.792084,3.000002 605.084167,3.000002 733.687988,3.000002 
	C733.687988,113.720970 733.687988,224.099258 733.687988,334.738892 
	C490.303864,334.738892 247.052246,334.738892 3.400276,334.738892 
	C3.400276,224.456284 3.400276,114.077744 3.400276,3.000002 
	C118.011200,3.000002 232.755600,3.000002 348.000000,3.000002 
M66.425941,158.982559 
	C66.459579,160.616669 66.972290,162.439285 66.420059,163.842880 
	C65.476524,166.241058 63.976883,168.451920 62.517391,170.610703 
	C48.227116,191.747955 33.890125,212.853622 19.596701,233.988754 
	C18.847246,235.096939 18.371187,236.390015 17.569874,237.993073 
	C50.860935,237.993073 83.503967,238.041473 116.145622,237.852661 
	C117.808548,237.843048 120.003052,236.160843 121.034142,234.637451 
	C134.781235,214.327118 147.957748,193.616150 162.181183,173.649506 
	C168.205688,165.192368 169.709869,159.578766 162.558136,150.142105 
	C147.786972,130.651566 135.072342,109.593414 121.732437,89.036896 
	C119.733635,85.956772 117.630936,84.920242 114.099609,84.933548 
	C83.449730,85.049149 52.799225,84.997215 22.148912,85.009331 
	C20.733690,85.009895 19.318521,85.145561 17.188688,85.255035 
	C33.700760,110.034760 49.829422,134.239105 66.425941,158.982559 
M536.949768,229.177155 
	C537.298401,218.735809 537.771729,208.296829 537.969971,197.852631 
	C538.389404,175.748459 538.667053,153.641617 538.996521,131.535767 
	C539.022949,129.764099 539.000000,127.991707 539.000000,126.219650 
	C540.267456,127.698479 540.902893,129.311356 541.468079,130.948441 
	C547.990234,149.840027 554.579712,168.709091 560.938293,187.655655 
	C561.981689,190.764816 563.834473,191.393356 566.489075,190.965363 
	C569.428650,190.491455 573.255432,192.816071 574.924561,188.139145 
	C580.214417,173.317551 585.612244,158.534546 590.967590,143.736298 
	C593.098022,137.849136 595.226257,131.961166 597.355469,126.073570 
	C597.903687,126.132004 598.451843,126.190437 599.000000,126.248871 
	C599.000000,139.852005 598.876953,153.456512 599.028870,167.057953 
	C599.257080,187.498596 599.673401,207.937180 600.034668,228.376205 
	C600.048401,229.151932 600.321228,229.923080 600.475647,230.708130 
	C606.010864,230.708130 611.268616,230.708130 616.999390,230.708130 
	C616.327209,219.898224 615.557495,209.401428 615.048340,198.891983 
	C614.270996,182.846191 613.605652,166.794144 613.022095,150.740051 
	C612.576050,138.469559 612.379517,126.190048 611.943665,113.919098 
	C611.876526,112.028435 611.119141,110.162277 610.617249,108.011955 
	C604.691650,108.011955 599.040283,107.858864 593.410095,108.135597 
	C592.223389,108.193939 590.536743,109.597496 590.065430,110.775322 
	C587.508606,117.165024 585.273865,123.683128 582.903992,130.148148 
	C578.024963,143.458572 573.130493,156.763367 568.244507,170.064713 
	C561.831787,151.108932 555.414795,131.999176 548.842346,112.943024 
	C548.220703,111.140640 546.728943,108.377144 545.460449,108.273659 
	C539.416077,107.780518 533.309265,108.052856 527.489563,108.052856 
	C526.948914,114.622910 526.372437,120.377701 526.022095,126.146225 
	C525.290344,138.193726 524.593323,150.244553 524.037415,162.301178 
	C523.282104,178.681442 522.679199,195.068695 521.990234,211.452087 
	C521.914001,213.263824 521.662354,215.067612 521.562012,216.878983 
	C521.309570,221.435852 521.097168,225.994934 520.825073,231.423996 
	C526.742554,230.935028 531.761292,230.520325 536.949768,229.177155 
M213.000000,186.500000 
	C213.000000,201.246155 213.000000,215.992310 213.000000,230.019394 
	C227.931580,230.019394 242.036636,230.400421 256.110229,229.898727 
	C267.354645,229.497894 277.003021,224.913544 284.960541,216.629425 
	C295.609650,205.543289 295.964294,185.110428 284.842224,174.559418 
	C280.977478,170.893112 275.898102,168.507217 271.140900,165.383789 
	C281.234589,161.648956 287.088135,154.146805 288.635742,143.597412 
	C290.575073,130.378113 286.236084,116.760597 271.100952,111.509651 
	C261.877136,108.309555 252.410538,107.810417 242.786880,107.965286 
	C233.014969,108.122528 223.238556,108.000000 213.000000,108.000000 
	C213.000000,134.252670 213.000000,159.876328 213.000000,186.500000 
M470.585114,162.000000 
	C468.162415,162.000000 465.739716,162.000000 463.314758,162.000000 
	C463.314758,167.028183 463.314758,171.280258 463.314758,176.179565 
	C471.660309,176.179565 479.709991,176.179565 487.847839,176.179565 
	C487.847839,189.636429 487.847839,202.435852 487.847839,215.695084 
	C484.657654,216.395309 481.545654,217.354752 478.364716,217.730087 
	C462.057129,219.654327 444.099731,214.031448 437.798035,194.807648 
	C432.627930,179.035873 432.564240,163.285583 437.405151,147.742142 
	C439.657135,140.511337 443.588837,133.683350 450.243134,128.859314 
	C462.994049,119.615501 476.730591,119.247116 491.094025,123.597412 
	C495.370636,124.892677 499.487427,126.715698 503.996063,128.417160 
	C503.996063,123.584671 504.257233,119.234245 503.849426,114.947441 
	C503.713135,113.514832 502.145355,111.598129 500.759155,111.001877 
	C488.626495,105.783409 475.996429,104.878090 463.014801,106.971451 
	C446.149963,109.691010 433.304169,118.286163 425.012878,133.174377 
	C414.711609,151.671799 413.720856,171.624313 418.205566,191.709808 
	C423.966858,217.512756 439.428314,230.146912 464.071686,232.820114 
	C476.784149,234.199142 489.311584,231.846893 501.354767,227.137619 
	C504.205933,226.022736 505.080627,224.735306 505.057190,221.823624 
	C504.933716,206.498108 504.999817,191.171066 505.000031,175.844543 
	C505.000092,171.395706 505.000000,166.946884 505.000000,162.000000 
	C493.465729,162.000000 482.513977,162.000000 470.585114,162.000000 
M343.000000,190.500000 
	C343.000000,163.103394 343.000000,135.706802 343.000000,108.320541 
	C336.956848,108.320541 331.708923,108.320541 326.392090,108.320541 
	C326.392090,149.320709 326.392090,189.999130 326.392090,230.698715 
	C350.023529,230.698715 373.261566,230.698715 396.595398,230.698715 
	C396.595398,226.021820 396.595398,221.657974 396.595398,216.831039 
	C378.616913,216.831039 361.038696,216.831039 343.000000,216.831039 
	C343.000000,208.078979 343.000000,199.789490 343.000000,190.500000 
M670.980957,142.493393 
	C670.953613,131.210281 670.911499,119.927177 670.902344,108.644051 
	C670.888123,91.226501 670.887817,73.808922 670.898376,56.391369 
	C670.905334,44.941387 671.092102,33.487564 670.798401,22.045715 
	C670.755737,20.384310 668.637085,17.585556 667.199463,17.392141 
	C663.950928,16.955126 664.078430,19.903397 664.111633,22.325089 
	C664.272278,34.031673 664.516174,45.739155 664.489990,57.445782 
	C664.451233,74.762291 664.098267,92.078278 664.088135,109.394623 
	C664.079529,124.072014 664.498779,138.749649 664.489563,153.427048 
	C664.478760,170.743240 664.087891,188.059280 664.088562,205.375381 
	C664.089294,222.691360 664.435547,240.007065 664.510254,257.323425 
	C664.589966,275.791412 664.484863,294.260284 664.587280,312.728058 
	C664.599609,314.945770 665.404175,317.159088 665.841553,319.374420 
	C667.457397,317.250885 669.147522,315.177612 670.640930,312.971222 
	C671.053589,312.361481 670.966003,311.355316 670.963440,310.531494 
	C670.944397,304.391357 670.856995,298.251373 670.851074,292.111267 
	C670.834595,275.025085 670.848694,257.938904 670.848206,240.852707 
	C670.847778,223.263763 670.827332,205.674805 670.847229,188.085876 
	C670.864136,173.156097 670.926025,158.226349 670.980957,142.493393 
z"/>
<path fill="#05C61A" opacity="1.000000" stroke="none" 
	d="
M66.192017,158.712997 
	C49.829422,134.239105 33.700760,110.034760 17.188688,85.255035 
	C19.318521,85.145561 20.733690,85.009895 22.148912,85.009331 
	C52.799225,84.997215 83.449730,85.049149 114.099609,84.933548 
	C117.630936,84.920242 119.733635,85.956772 121.732437,89.036896 
	C135.072342,109.593414 147.786972,130.651566 162.558136,150.142105 
	C169.709869,159.578766 168.205688,165.192368 162.181183,173.649506 
	C147.957748,193.616150 134.781235,214.327118 121.034142,234.637451 
	C120.003052,236.160843 117.808548,237.843048 116.145622,237.852661 
	C83.503967,238.041473 50.860935,237.993073 17.569874,237.993073 
	C18.371187,236.390015 18.847246,235.096939 19.596701,233.988754 
	C33.890125,212.853622 48.227116,191.747955 62.517391,170.610703 
	C63.976883,168.451920 65.476524,166.241058 66.420059,163.842880 
	C66.972290,162.439285 66.459579,160.616669 66.192017,158.712997 
z"/>
<path fill="#3F94AA" opacity="1.000000" stroke="none" 
	d="
M536.864868,229.641388 
	C531.761292,230.520325 526.742554,230.935028 520.825073,231.423996 
	C521.097168,225.994934 521.309570,221.435852 521.562012,216.878983 
	C521.662354,215.067612 521.914001,213.263824 521.990234,211.452087 
	C522.679199,195.068695 523.282104,178.681442 524.037415,162.301178 
	C524.593323,150.244553 525.290344,138.193726 526.022095,126.146225 
	C526.372437,120.377701 526.948914,114.622910 527.489563,108.052856 
	C533.309265,108.052856 539.416077,107.780518 545.460449,108.273659 
	C546.728943,108.377144 548.220703,111.140640 548.842346,112.943024 
	C555.414795,131.999176 561.831787,151.108932 568.244507,170.064713 
	C573.130493,156.763367 578.024963,143.458572 582.903992,130.148148 
	C585.273865,123.683128 587.508606,117.165024 590.065430,110.775322 
	C590.536743,109.597496 592.223389,108.193939 593.410095,108.135597 
	C599.040283,107.858864 604.691650,108.011955 610.617249,108.011955 
	C611.119141,110.162277 611.876526,112.028435 611.943665,113.919098 
	C612.379517,126.190048 612.576050,138.469559 613.022095,150.740051 
	C613.605652,166.794144 614.270996,182.846191 615.048340,198.891983 
	C615.557495,209.401428 616.327209,219.898224 616.999390,230.708130 
	C611.268616,230.708130 606.010864,230.708130 600.475647,230.708130 
	C600.321228,229.923080 600.048401,229.151932 600.034668,228.376205 
	C599.673401,207.937180 599.257080,187.498596 599.028870,167.057953 
	C598.876953,153.456512 599.000000,139.852005 599.000000,126.248871 
	C598.451843,126.190437 597.903687,126.132004 597.355469,126.073570 
	C595.226257,131.961166 593.098022,137.849136 590.967590,143.736298 
	C585.612244,158.534546 580.214417,173.317551 574.924561,188.139145 
	C573.255432,192.816071 569.428650,190.491455 566.489075,190.965363 
	C563.834473,191.393356 561.981689,190.764816 560.938293,187.655655 
	C554.579712,168.709091 547.990234,149.840027 541.468079,130.948441 
	C540.902893,129.311356 540.267456,127.698479 539.000000,126.219650 
	C539.000000,127.991707 539.022949,129.764099 538.996521,131.535767 
	C538.667053,153.641617 538.389404,175.748459 537.969971,197.852631 
	C537.771729,208.296829 537.298401,218.735809 536.864868,229.641388 
z"/>
<path fill="#3F94AA" opacity="1.000000" stroke="none" 
	d="
M213.000000,186.000000 
	C213.000000,159.876328 213.000000,134.252670 213.000000,108.000000 
	C223.238556,108.000000 233.014969,108.122528 242.786880,107.965286 
	C252.410538,107.810417 261.877136,108.309555 271.100952,111.509651 
	C286.236084,116.760597 290.575073,130.378113 288.635742,143.597412 
	C287.088135,154.146805 281.234589,161.648956 271.140900,165.383789 
	C275.898102,168.507217 280.977478,170.893112 284.842224,174.559418 
	C295.964294,185.110428 295.609650,205.543289 284.960541,216.629425 
	C277.003021,224.913544 267.354645,229.497894 256.110229,229.898727 
	C242.036636,230.400421 227.931580,230.019394 213.000000,230.019394 
	C213.000000,215.992310 213.000000,201.246155 213.000000,186.000000 
M236.610703,217.000000 
	C244.034500,216.663345 251.502960,216.721725 258.870605,215.888565 
	C267.785156,214.880478 274.873993,207.553391 275.972473,199.199890 
	C277.194885,189.904037 273.157623,182.323883 264.603363,178.288757 
	C253.614990,173.105423 241.968033,175.558502 230.367065,174.960968 
	C230.367065,189.257599 230.367065,202.941483 230.367065,216.999924 
	C232.365067,216.999924 234.005188,216.999924 236.610703,217.000000 
M230.011200,158.228012 
	C230.682724,159.137985 231.398148,160.868195 232.019150,160.834961 
	C241.377808,160.333847 250.867798,160.375290 260.027252,158.674881 
	C267.224670,157.338699 271.568817,149.685028 272.028534,141.808212 
	C272.501923,133.695999 269.718872,127.606003 261.901978,124.434258 
	C251.547974,120.233070 240.845261,122.570992 230.002365,122.031677 
	C230.002365,134.325485 230.002365,145.798706 230.011200,158.228012 
z"/>
<path fill="#3F94AA" opacity="1.000000" stroke="none" 
	d="
M471.073669,162.000000 
	C482.513977,162.000000 493.465729,162.000000 505.000000,162.000000 
	C505.000000,166.946884 505.000092,171.395706 505.000031,175.844543 
	C504.999817,191.171066 504.933716,206.498108 505.057190,221.823624 
	C505.080627,224.735306 504.205933,226.022736 501.354767,227.137619 
	C489.311584,231.846893 476.784149,234.199142 464.071686,232.820114 
	C439.428314,230.146912 423.966858,217.512756 418.205566,191.709808 
	C413.720856,171.624313 414.711609,151.671799 425.012878,133.174377 
	C433.304169,118.286163 446.149963,109.691010 463.014801,106.971451 
	C475.996429,104.878090 488.626495,105.783409 500.759155,111.001877 
	C502.145355,111.598129 503.713135,113.514832 503.849426,114.947441 
	C504.257233,119.234245 503.996063,123.584671 503.996063,128.417160 
	C499.487427,126.715698 495.370636,124.892677 491.094025,123.597412 
	C476.730591,119.247116 462.994049,119.615501 450.243134,128.859314 
	C443.588837,133.683350 439.657135,140.511337 437.405151,147.742142 
	C432.564240,163.285583 432.627930,179.035873 437.798035,194.807648 
	C444.099731,214.031448 462.057129,219.654327 478.364716,217.730087 
	C481.545654,217.354752 484.657654,216.395309 487.847839,215.695084 
	C487.847839,202.435852 487.847839,189.636429 487.847839,176.179565 
	C479.709991,176.179565 471.660309,176.179565 463.314758,176.179565 
	C463.314758,171.280258 463.314758,167.028183 463.314758,162.000000 
	C465.739716,162.000000 468.162415,162.000000 471.073669,162.000000 
z"/>
<path fill="#3F94AA" opacity="1.000000" stroke="none" 
	d="
M343.000000,191.000000 
	C343.000000,199.789490 343.000000,208.078979 343.000000,216.831039 
	C361.038696,216.831039 378.616913,216.831039 396.595398,216.831039 
	C396.595398,221.657974 396.595398,226.021820 396.595398,230.698715 
	C373.261566,230.698715 350.023529,230.698715 326.392090,230.698715 
	C326.392090,189.999130 326.392090,149.320709 326.392090,108.320541 
	C331.708923,108.320541 336.956848,108.320541 343.000000,108.320541 
	C343.000000,135.706802 343.000000,163.103394 343.000000,191.000000 
z"/>
<path fill="#003500" opacity="1.000000" stroke="none" 
	d="
M670.974487,142.894989 
	C670.926025,158.226349 670.864136,173.156097 670.847229,188.085876 
	C670.827332,205.674805 670.847778,223.263763 670.848206,240.852707 
	C670.848694,257.938904 670.834595,275.025085 670.851074,292.111267 
	C670.856995,298.251373 670.944397,304.391357 670.963440,310.531494 
	C670.966003,311.355316 671.053589,312.361481 670.640930,312.971222 
	C669.147522,315.177612 667.457397,317.250885 665.841553,319.374420 
	C665.404175,317.159088 664.599609,314.945770 664.587280,312.728058 
	C664.484863,294.260284 664.589966,275.791412 664.510254,257.323425 
	C664.435547,240.007065 664.089294,222.691360 664.088562,205.375381 
	C664.087891,188.059280 664.478760,170.743240 664.489563,153.427048 
	C664.498779,138.749649 664.079529,124.072014 664.088135,109.394623 
	C664.098267,92.078278 664.451233,74.762291 664.489990,57.445782 
	C664.516174,45.739155 664.272278,34.031673 664.111633,22.325089 
	C664.078430,19.903397 663.950928,16.955126 667.199463,17.392141 
	C668.637085,17.585556 670.755737,20.384310 670.798401,22.045715 
	C671.092102,33.487564 670.905334,44.941387 670.898376,56.391369 
	C670.887817,73.808922 670.888123,91.226501 670.902344,108.644051 
	C670.911499,119.927177 670.953613,131.210281 670.974487,142.894989 
z"/>
<path fill="#161616" opacity="1.000000" stroke="none" 
	d="
M236.128006,216.999969 
	C234.005188,216.999924 232.365067,216.999924 230.367065,216.999924 
	C230.367065,202.941483 230.367065,189.257599 230.367065,174.960968 
	C241.968033,175.558502 253.614990,173.105423 264.603363,178.288757 
	C273.157623,182.323883 277.194885,189.904037 275.972473,199.199890 
	C274.873993,207.553391 267.785156,214.880478 258.870605,215.888565 
	C251.502960,216.721725 244.034500,216.663345 236.128006,216.999969 
z"/>
<path fill="#161616" opacity="1.000000" stroke="none" 
	d="
M230.006775,157.749969 
	C230.002365,145.798706 230.002365,134.325485 230.002365,122.031677 
	C240.845261,122.570992 251.547974,120.233070 261.901978,124.434258 
	C269.718872,127.606003 272.501923,133.695999 272.028534,141.808212 
	C271.568817,149.685028 267.224670,157.338699 260.027252,158.674881 
	C250.867798,160.375290 241.377808,160.333847 232.019150,160.834961 
	C231.398148,160.868195 230.682724,159.137985 230.006775,157.749969 
z"/>
</svg>